#!OML:ASF H:\Male1\Project 1\Capture day 1\Session 1\Male1.ASF
:FULLY-SPECIFIED
:DEGREES
443
root -7.99874 15.104 9.45047 2.34749 119.585 -359.864
lowerback 13.3143 -0.546516 -2.22638
upperback 5.05518 -0.693606 -0.5622
thorax -2.12664 -0.221446 0.767524
lowerneck -12.0146 -1.99443 2.14586
upperneck -0.0799563 -2.94438 4.33465
head 2.07605 -1.2476 0.859785
rclavicle 7.37491e-014 -2.5842e-014
rhumerus -42.0468 7.02705 -83.7467
rradius 43.8103
rwrist -27.8757
rhand -27.1274 -0.179489
rfingers 7.12502
rthumb -0.543131 -30.1585
lclavicle 7.37491e-014 -2.5842e-014
lhumerus -38.9485 16.0556 69.0871
lradius 31.9747
lwrist -8.50313
lhand -11.7427 6.5809
lfingers 7.12502
lthumb 14.305 36.0681
rfemur -16.8352 12.9376 24.5472
rtibia 33.0571
rfoot -21.82 -33.8947
rtoes -38.0065
lfemur -8.91458 -1.16639 -22.4911
ltibia 41.19
lfoot -22.8263 17.3496
ltoes -16.5261
444
root -8.08382 15.0908 9.55764 2.69757 120.576 -359.628
lowerback 13.044 -0.66344 -2.40441
upperback 5.02038 -0.863778 -0.414131
thorax -2.0064 -0.312263 1.04426
lowerneck -12.4107 -2.09414 2.07932
upperneck 0.25904 -3.10572 4.5278
head 2.27013 -1.30758 0.9215
rclavicle -8.94531e-015 1.35174e-014
rhumerus -42.2226 6.82509 -83.447
rradius 43.1942
rwrist -27.84
rhand -27.1915 -1.12484
rfingers 7.12502
rthumb -0.605045 -31.1037
lclavicle -8.94531e-015 1.35174e-014
lhumerus -39.252 18.092 67.5831
lradius 30.3865
lwrist -9.24592
lhand -11.2173 8.44059
lfingers 7.12502
lthumb 14.8111 37.8913
rfemur -17.7749 12.3943 24.7299
rtibia 33.5107
rfoot -26.6609 -32.0944
rtoes -28.8591
lfemur -6.34263 -1.13043 -23.0567
ltibia 38.9156
lfoot -23.1 18.3828
ltoes -17.7221
445
root -8.16573 15.0727 9.66303 3.14917 121.532 -359.407
lowerback 12.7233 -0.807082 -2.69849
upperback 4.95774 -1.08386 -0.239736
thorax -1.88033 -0.430718 1.4186
lowerneck -12.6626 -2.12205 1.90954
upperneck 0.414019 -3.14395 4.85387
head 2.38083 -1.30598 1.05307
rclavicle -2.18663e-015 2.18663e-014
rhumerus -42.3377 6.84345 -83.1966
rradius 42.5694
rwrist -27.7976
rhand -26.975 -1.70321
rfingers 7.12502
rthumb -0.395904 -31.6826
lclavicle -2.18663e-015 2.18663e-014
lhumerus -39.6524 19.8324 66.2614
lradius 29.2767
lwrist -9.5327
lhand -11.2065 7.30266
lfingers 7.12502
lthumb 14.8215 36.7526
rfemur -18.906 11.3471 24.8642
rtibia 34.0285
rfoot -30.8903 -29.5932
rtoes -17.2971
lfemur -3.98753 -1.41643 -23.5582
ltibia 35.9732
lfoot -24.4476 19.6344
ltoes -15.9291
446
root -8.24083 15.0539 9.77336 3.54229 122.516 -359.262
lowerback 12.43 -0.893862 -3.13704
upperback 4.90509 -1.24412 -0.118287
thorax -1.75487 -0.519876 1.80929
lowerneck -12.7781 -2.14411 1.88825
upperneck 0.446911 -3.18184 5.18081
head 2.42246 -1.30644 1.16069
rclavicle 2.6339e-014 -9.54166e-015
rhumerus -42.5561 6.46602 -82.9656
rradius 42.0914
rwrist -27.3792
rhand -26.6245 -1.71205
rfingers 7.12502
rthumb -0.0574006 -31.6918
lclavicle 2.6339e-014 -9.54166e-015
lhumerus -39.8477 20.97 65.1036
lradius 28.3494
lwrist -9.62083
lhand -11.7701 7.85959
lfingers 7.12502
lthumb 14.2785 37.3487
rfemur -20.0985 10.4192 24.9748
rtibia 34.6236
rfoot -30.0411 -29.6708
rtoes -17.0085
lfemur -1.81628 -2.1236 -24.0176
ltibia 32.5528
lfoot -26.8175 21.2488
ltoes -12.7395
447
root -8.31163 15.033 9.87944 3.84898 123.54 -359.169
lowerback 12.2073 -0.935873 -3.51392
upperback 4.84532 -1.33995 -0.0938749
thorax -1.67986 -0.574215 2.05591
lowerneck -12.628 -2.19997 1.86285
upperneck 0.384117 -3.25239 5.5889
head 2.38578 -1.32664 1.29538
rclavicle -1.37161e-014 1.59028e-015
rhumerus -42.874 5.63358 -82.7301
rradius 41.6314
rwrist -26.7862
rhand -26.2749 -1.79197
rfingers 7.12502
rthumb 0.280216 -31.7715
lclavicle -1.37161e-014 1.59028e-015
lhumerus -39.7875 21.727 64.0001
lradius 27.4593
lwrist -10.0187
lhand -12.4815 8.51517
lfingers 7.12502
lthumb 13.593 38.0514
rfemur -21.1979 9.67021 25.0741
rtibia 35.1928
rfoot -29.404 -29.9167
rtoes -17.2281
lfemur -0.525983 -4.05382 -24.4112
ltibia 28.9261
lfoot -29.8288 23.5547
ltoes -7.88044
448
root -8.38862 15.0145 9.98971 4.03583 124.617 -359.162
lowerback 12.1989 -0.98336 -3.87018
upperback 4.75969 -1.44832 -0.130063
thorax -1.74784 -0.629804 2.23374
lowerneck -12.3622 -2.26077 1.74011
upperneck 0.311401 -3.31344 6.05286
head 2.32883 -1.34391 1.46693
rclavicle 3.39922e-014 8.74653e-015
rhumerus -43.1138 4.78093 -82.571
rradius 41.0718
rwrist -26.2875
rhand -26.0692 -1.98702
rfingers 7.12502
rthumb 0.478932 -31.9662
lclavicle 3.39922e-014 8.74653e-015
lhumerus -39.5629 22.3013 63.0258
lradius 26.7426
lwrist -10.3959
lhand -13.6639 9.42184
lfingers 7.12502
lthumb 12.4532 39.0308
rfemur -22.2014 9.23534 25.1478
rtibia 35.6755
rfoot -29.2283 -30.3772
rtoes -17.202
lfemur 0.515845 -6.45062 -24.8118
ltibia 25.704
lfoot -32.621 25.4248
ltoes -1.16569
449
root -8.46933 15.0199 10.1059 3.9757 125.742 -359.395
lowerback 12.3975 -1.04453 -4.44095
upperback 4.72423 -1.6006 -0.189576
thorax -1.86404 -0.704341 2.51783
lowerneck -12.1945 -2.26498 1.44377
upperneck 0.195096 -3.27432 6.56671
head 2.27914 -1.30956 1.69151
rclavicle 3.22031e-014 3.97569e-016
rhumerus -43.1254 4.16009 -82.5108
rradius 40.4887
rwrist -26.1079
rhand -26.0489 -2.06507
rfingers 7.12502
rthumb 0.498508 -32.0442
lclavicle 3.22031e-014 3.97569e-016
lhumerus -39.2998 23.6724 61.5338
lradius 26.0845
lwrist -12.8087
lhand -13.3618 10.0903
lfingers 7.12502
lthumb 12.7444 39.6814
rfemur -23.054 9.03529 25.0595
rtibia 36.0049
rfoot -29.3443 -30.8631
rtoes -16.5072
lfemur 1.35362 -9.569 -25.2818
ltibia 23.1455
lfoot -33.9114 27.1706
ltoes 2.68966
450
root -8.54792 15.0332 10.2227 3.75422 126.803 -359.724
lowerback 12.5562 -1.05573 -5.0408
upperback 4.91606 -1.66647 -0.328292
thorax -1.7253 -0.737241 2.72
lowerneck -12.2551 -2.25117 1.33766
upperneck -0.125458 -3.21576 6.99393
head 2.19492 -1.2645 1.85414
rclavicle 3.12092e-014 -1.74931e-014
rhumerus -42.8789 3.46287 -82.6131
rradius 39.9479
rwrist -26.0278
rhand -26.2625 -2.10481
rfingers 7.12502
rthumb 0.292211 -32.0844
lclavicle 3.12092e-014 -1.74931e-014
lhumerus -38.3466 24.2209 60.8818
lradius 25.6596
lwrist -13.1298
lhand -14.0211 10.6671
lfingers 7.12502
lthumb 12.1088 40.2968
rfemur -23.731 8.81231 24.8864
rtibia 36.2063
rfoot -29.0081 -31.3272
rtoes -17.587
lfemur 1.56028 -10.7015 -25.136
ltibia 21.701
lfoot -33.0339 27.22
ltoes 1.97278
451
root -8.61936 15.0546 10.3359 3.25951 127.699 -360.263
lowerback 12.7209 -0.958988 -5.68884
upperback 5.20493 -1.58333 -0.579124
thorax -1.50024 -0.695908 2.81071
lowerneck -12.3107 -2.04441 1.23221
upperneck -0.4858 -2.88725 7.19315
head 2.08141 -1.09514 1.95661
rclavicle 1.78906e-014 -1.03368e-014
rhumerus -42.7369 2.53545 -82.823
rradius 39.4956
rwrist -25.6867
rhand -26.706 -2.32277
rfingers 7.12502
rthumb -0.136166 -32.3025
lclavicle 1.78906e-014 -1.03368e-014
lhumerus -36.8941 23.9396 60.8746
lradius 25.2951
lwrist -12.1837
lhand -15.4867 11.313
lfingers 7.12502
lthumb 10.6953 41.0207
rfemur -24.1285 8.37425 24.5809
rtibia 36.1916
rfoot -28.77 -31.2376
rtoes -18.429
lfemur 1.17576 -10.9319 -24.8987
ltibia 21.3087
lfoot -31.3822 26.8241
ltoes -0.0586487
452
root -8.68584 15.0701 10.4617 2.88176 128.514 -360.532
lowerback 13.1126 -0.782724 -6.15751
upperback 5.41734 -1.39388 -0.856835
thorax -1.49452 -0.592361 2.76355
lowerneck -12.2624 -1.63284 1.34586
upperneck -0.741611 -2.31461 7.09954
head 1.96389 -0.815106 1.93631
rclavicle -4.94974e-014 1.43125e-014
rhumerus -42.8245 1.53454 -83.1771
rradius 39.085
rwrist -25.2377
rhand -26.9889 -2.82889
rfingers 7.12502
rthumb -0.409389 -32.8082
lclavicle -4.94974e-014 1.43125e-014
lhumerus -35.2739 23.7789 60.6648
lradius 24.6545
lwrist -12.279
lhand -16.7993 11.5421
lfingers 7.12502
lthumb 9.429 41.3112
rfemur -24.2885 8.17865 24.52
rtibia 36.0364
rfoot -28.848 -31.125
rtoes -18.6237
lfemur 0.397434 -9.91174 -24.1915
ltibia 21.6113
lfoot -29.3125 25.641
ltoes -4.13567
